<?xml version="1.0" encoding="utf-8"?>
<!-- Generator: Adobe Illustrator 26.0.2, SVG Export Plug-In . SVG Version: 6.00 Build 0)  -->
<svg version="1.1" xmlns="http://www.w3.org/2000/svg" xmlns:xlink="http://www.w3.org/1999/xlink" x="0px" y="0px" width="80px"
	 height="80px" viewBox="0 0 80 80" enable-background="new 0 0 80 80" xml:space="preserve">
<g id="Layer_1">
	<g id="Outline">
		<rect y="8" opacity="0.2" fill="#EAD7BA" width="72" height="72"/>
	</g>
	<g id="Target">
		<polyline fill="#F3EBDE" points="4,12 4,76 68,76 68,12 4,12 		"/>
		<rect x="8" y="16" fill="#B93232" width="56" height="56"/>
		<rect x="12" y="20" fill="#F3EBDE" width="48" height="48"/>
		<rect x="20" y="28" fill="#B93232" width="32" height="32"/>
		<rect x="24" y="32" fill="#F3EBDE" width="24" height="24"/>
		<rect x="32" y="40" fill="#B93232" width="8" height="8"/>
		<rect x="52" y="16.003" fill="#B93232" width="4" height="3.997"/>
		<rect x="48" y="16.001" fill="#D53535" width="4" height="3.999"/>
		<rect x="44" y="16" fill="#C82E2E" width="4" height="4"/>
		<rect x="56" y="16.001" fill="#DD4B4B" width="4" height="3.999"/>
		<rect x="32" y="40" fill="#D43535" width="4" height="4"/>
		<rect x="32" y="44" fill="#DD4B4B" width="4" height="4"/>
		<polyline fill="#B93232" points="40,44 40,48 36,48 36,44 40,44 		"/>
		<rect x="40" y="16.001" fill="#B93232" width="4" height="3.999"/>
		<polyline fill="#B93232" points="60,28 60,24 64,24 64,28 60,28 		"/>
		<rect x="60" y="32" fill="#A43434" width="4" height="4"/>
		<rect x="60" y="28" fill="#C83030" width="4" height="4"/>
		<rect x="60" y="36" fill="#C83030" width="4" height="4"/>
		<polyline fill="#B93232" points="64,40 64,48 60,48 60,40 64,40 		"/>
		<polyline fill="#C83030" points="64,48 64,52 60,52 60,48 64,48 		"/>
		<rect x="60" y="52" fill="#B93232" width="4" height="4.001"/>
		<rect x="60" y="56" fill="#C83030" width="4" height="12"/>
		<rect x="60" y="68" fill="#A43434" width="4" height="4"/>
		<polygon fill="#A43434" points="52.003,72 55.851,72 56,72 56,68 52.003,68 		"/>
		<rect x="48" y="68" fill="#BA3333" width="4.003" height="4"/>
		<polyline fill="#BA3333" points="56,68 56,72 60,72 60,68 56,68 		"/>
		<polyline fill="#C83030" points="44,68 44,72 48,72 48,68 44,68 		"/>
		<rect x="40" y="68" fill="#D43535" width="4" height="4"/>
		<rect x="36" y="68" fill="#C83030" width="4" height="4"/>
		<rect x="32" y="68" fill="#D43535" width="4" height="4"/>
		<rect x="28" y="68" fill="#A43434" width="4" height="4"/>
		<rect x="24" y="68" fill="#D43535" width="4" height="4"/>
		<rect x="20" y="68" fill="#C83030" width="4" height="4"/>
		<rect x="16" y="68" fill="#BA3333" width="4" height="4"/>
		<rect x="12" y="68" fill="#A43434" width="4" height="4"/>
		<rect x="8" y="68" fill="#D43535" width="4" height="4"/>
		<rect x="8" y="60" fill="#BA3333" width="4" height="8"/>
		<rect x="8" y="56" fill="#D43535" width="4" height="4"/>
		<rect x="8" y="44" fill="#DD4B4B" width="4" height="12"/>
		<rect x="8" y="32" fill="#D43535" width="4" height="12"/>
		<rect x="8" y="27.999" fill="#BA3333" width="4" height="4.001"/>
		<rect x="8" y="24" fill="#D43535" width="4" height="3.999"/>
		<rect x="8" y="16.003" fill="#D43535" width="4" height="3.997"/>
		<polyline fill="#C83030" points="16,16.003 12,16.003 12,20 16,20 16,16 		"/>
		<rect x="16" y="16" fill="#D43535" width="4" height="4"/>
		<polyline fill="#C83030" points="24,16 24,20 20,20 20,16 24,16 		"/>
		<rect x="24" y="16" fill="#DD4B4B" width="4" height="4"/>
		<polyline fill="#C83030" points="28,16 32,16 32,20 28,20 28,16 		"/>
		<polyline fill="#C83030" points="8,24 8,20 12,20 12,24 8,24 		"/>
		<polyline fill="#D53535" points="32,16 36,16 36,20 32,20 		"/>
		<polyline fill="#A43434" points="40,16 40,20 36,20 36,16 40,16 		"/>
		<rect x="20" y="28" fill="#A43434" width="4" height="4"/>
		<rect x="43.999" y="27.999" fill="#A43434" width="4.001" height="4.001"/>
		<polyline fill="#D53535" points="40,28 40,32 44,32 43.997,27.999 40,28 		"/>
		<polyline fill="#B93232" points="36,28 36,32 40,32 40,28 36,28 		"/>
		<polyline fill="#C82E2E" points="32,28 32,32 36,32 36,28 32,28 		"/>
		<rect x="28" y="28" fill="#B93232" width="4" height="4"/>
		<rect x="24" y="28" fill="#DD4B4B" width="4" height="4"/>
		<polyline fill="#B93232" points="20,32 20,40 24,40 24,32 		"/>
		<rect x="20" y="40" fill="#C82E2E" width="4" height="12"/>
		<polyline fill="#B93232" points="20,52 20,60 24,60 24,52 20,52 		"/>
		<rect x="28" y="56" fill="#B93232" width="4" height="4"/>
		<rect x="36" y="56" fill="#B93232" width="4" height="4"/>
		<rect x="43.999" y="56" fill="#B93232" width="4.001" height="4"/>
		<rect x="24" y="56" fill="#DD4B4B" width="4" height="4"/>
		<rect x="32" y="56" fill="#DD4B4B" width="4" height="4"/>
		<rect x="40" y="56" fill="#DD4B4B" width="3.999" height="4"/>
		<rect x="48" y="52" fill="#D53535" width="4.001" height="8"/>
		<rect x="48" y="40" fill="#D53535" width="4" height="4"/>
		<rect x="48" y="44" fill="#DC4A4A" width="4.001" height="8"/>
		<rect x="48" y="36" fill="#DC4A4A" width="4.001" height="4"/>
		<polyline fill="#EFE3D0" points="40,32 40,36 44,36 44,32 40,32 		"/>
		<rect x="32" y="32" fill="#FEFEFD" width="4" height="4"/>
		<rect x="28" y="36" fill="#F3EBDE" width="4" height="4"/>
		<rect x="28" y="44" fill="#F3EBDE" width="4" height="4"/>
		<rect x="28" y="32" fill="#EBD7BA" width="4" height="4"/>
		<rect x="28" y="40" fill="#EBD7BA" width="4" height="4"/>
		<rect x="24" y="36" fill="#EBD7BA" width="4" height="4"/>
		<rect x="32" y="48" fill="#EBD7BA" width="4" height="4"/>
		<polyline fill="#EBD7BA" points="40,48 40,52 43.997,52 43.997,48 40,48 		"/>
		<rect x="24" y="48" fill="#EBD7BA" width="4" height="4"/>
		<rect x="28" y="48" fill="#EFE3D0" width="4" height="8"/>
		<rect x="44" y="48" fill="#EFE3D0" width="4" height="8"/>
		<polyline fill="#EFE3D0" points="36,52 36,56 40,56 40,52 36,52 		"/>
		<polyline fill="#F3EBDE" points="36,52 40,52 40,48 36,48 36,52 		"/>
		<polyline fill="#FEFEFD" points="40,52 40,56 44,56 44,52 40,52 		"/>
		<polyline fill="#F3EBDE" points="24,52 24,56 28,56 28,52 24,52 		"/>
		<polyline fill="#F3EBDE" points="36,52 36,56 32,56 32,52 36,52 		"/>
		<polyline fill="#EFE2CF" points="24,40 28,40 28,44 24,44 24,40 		"/>
		<polyline fill="#EFE2CF" points="24,32 24,36 28,36 28,32 24,32 		"/>
		<polyline fill="#FEFEFD" points="24,44 24,48 28,48 28,44 24,44 		"/>
		<rect x="52" y="20" fill="#F3EBDE" width="4" height="4"/>
		<rect x="48" y="20" fill="#EFE2CF" width="4.001" height="7.999"/>
		<rect x="56" y="28" fill="#F3EBDE" width="4" height="4"/>
		<rect x="52.001" y="32" fill="#EBD7BA" width="3.999" height="4"/>
		<rect x="56" y="32" fill="#FEFEFD" width="4" height="4"/>
		<rect x="56" y="36" fill="#EBD7BA" width="4" height="8"/>
		<polyline fill="#EFE2D0" points="52,44 56,44 56,36 52,36 		"/>
		<rect x="56" y="44" fill="#F3EBDE" width="4" height="4"/>
		<polygon fill="#F3EBDE" points="52,60 56,60 56,56.001 60,56 60,52 56,52 56,48 52.003,48 		"/>
		<polygon fill="#EFE2D0" points="48,68 48,64 52,64 52,60 44,60 44,68 		"/>
		<polyline fill="#FEFEFD" points="52,48 52.295,48 56,48 56,44 52,44 		"/>
		<polyline fill="#EFE2D0" points="56,48 56,52 60,52 60,48 56,48 		"/>
		<polyline fill="#FEFEFD" points="56,56 56,60 60,60 60,56 56,56 		"/>
		<polyline fill="#F6F2EB" points="48,64 48,68 52,68 52,64 48,64 		"/>
		<polyline fill="#F6F2EB" points="52,60 52,64 56,64 56,60 52,60 		"/>
		<polyline fill="#F6F2EB" points="60,64 60,68 56,68 56,64 60,64 		"/>
		<polyline fill="#F3EBDE" points="52,64 52,68 56,68 56,64 52,64 		"/>
		<polyline fill="#EBD7BA" points="56,60 56,64 60,64 60,60 56,60 		"/>
		<polyline fill="#EBD7BA" points="40,60 40,64 43.997,64 44,60 40,60 		"/>
		<polyline fill="#EBD7BA" points="32,60 32,64 36,64 36,60 32,60 		"/>
		<rect x="12" y="64" fill="#EBD7BA" width="4" height="4"/>
		<rect x="16" y="60" fill="#EBD7BA" width="4" height="4"/>
		<polyline fill="#EBD7BA" points="16,60 12,60 12,52 16,52 16,60 		"/>
		<polyline fill="#EBD7BA" points="16,48 16,52 20,52 20,48 16,48 		"/>
		<polyline fill="#EBD7BA" points="12,44 20,44 20,40 12,40 12,44 		"/>
		<polyline fill="#EBD7BA" points="12,32 12,36 16,36 16,32 12,32 		"/>
		<path fill="#EBD7BA" d="M16,28"/>
		<polyline fill="#EBD7BA" points="16,28 16,32 20,32 20,28 16,28 		"/>
		<line fill="#B93232" x1="20" y1="32" x2="24" y2="32"/>
		<polyline fill="#EBD7BA" points="12,24 12,28 16,28 16,24 12,24 		"/>
		<polyline fill="#EBD7BA" points="20,24 20,28 24,28 24,24 20,24 		"/>
		<rect x="36" y="24" fill="#EBD7BA" width="4" height="4"/>
		<polyline fill="#EBD7BA" points="44,24 44,28 48,28 48,24 44,24 		"/>
		<rect x="44" y="20" fill="#F3EBDE" width="4" height="4"/>
		<polygon fill="#EFE2CF" points="28,28 28,20 40,20 40,24 32,24 32,28 		"/>
		<rect x="40" y="24" fill="#EFE2CF" width="4" height="4"/>
		<rect x="40" y="20" fill="#FEFEFD" width="4" height="4"/>
		<rect x="12" y="20" fill="#EFE2D0" width="4" height="4"/>
		<polyline fill="#EFE2D0" points="12,28 12,32 16,32 16,28 12,28 		"/>
		<rect x="16" y="32" fill="#EFE2D0" width="4" height="4"/>
		<polyline fill="#F3EBDF" points="16,24 16,28 20,28 20,24 16,24 		"/>
		<polyline fill="#F3EBDF" points="24,20 24,24 28,24 28,20 24,20 		"/>
		<polyline fill="#EFE2D0" points="20,20 20,24 24,24 24,20 20,20 		"/>
		<polyline fill="#FEFEFD" points="16,20 16,24 20,24 20,20 16,20 		"/>
		<rect x="24" y="24" fill="#FEFEFD" width="4" height="4"/>
		<polyline fill="#F3EBDF" points="32,24 32,28 36,28 36,24 32,24 		"/>
		<rect x="12" y="36" fill="#EFE2D0" width="4" height="4"/>
		<rect x="16" y="36" fill="#F2ECDF" width="4" height="4"/>
		<polyline fill="#EFE2D0" points="12,44 12,52 16,52 16,44 12,44 		"/>
		<polyline fill="#F4ECDF" points="16,44 16,48 20,48 20,44 16,44 		"/>
		<polyline fill="#F4ECDF" points="16,52 16,60 20,60 20,52 16,52 		"/>
		<polygon fill="#F4ECDF" points="24,60 24,64 28,64 28,68 16,68 16,64 20,64 20,60 		"/>
		<polyline fill="#F4ECDF" points="28,60 28,64 32,64 32,60 28,60 		"/>
		<polyline fill="#F4ECDF" points="40,60 40,64 36,64 36,60 40,60 		"/>
		<polyline fill="#F4ECDF" points="40,64 40,68 44,68 44,64 40,64 		"/>
		<polyline fill="#EFE2D0" points="32,64 32,68 40,68 40,64 32,64 		"/>
		<polyline fill="#FEFEFD" points="28,64 28,68 32,68 32,64 28,64 		"/>
		<polyline fill="#EFE2D0" points="24,60 24,64 28,64 28,60 24,60 		"/>
		<polyline fill="#F6F2EB" points="12,60 12,64 16,64 16,60 12,60 		"/>
		<rect x="8" y="12" fill="#EAD7BA" width="4" height="4.001"/>
		<polyline fill="#EAD7BA" points="4,16 4,20 8,20 8,16 4,16 		"/>
		<polyline fill="#EAD7BA" points="20,12 20,16 28,16 28,12 20,12 		"/>
		<rect x="32" y="12" fill="#EAD7BA" width="12" height="4"/>
		<rect x="56" y="12" fill="#EAD7BA" width="8" height="4"/>
		<rect x="64" y="20" fill="#EAD7BA" width="4" height="4"/>
		<polyline fill="#EAD7BA" points="64,28 68,28 68,32 64,32 		"/>
		<rect x="64" y="36" fill="#EAD7BA" width="4" height="4"/>
		<rect x="64" y="48" fill="#EAD7BA" width="4" height="8.001"/>
		<polyline fill="#EFE2CF" points="64,60 68,60 68,72 64,72 64,60 		"/>
		<rect x="60" y="72" fill="#EAD7BA" width="4" height="4"/>
		<polyline fill="#EFE2CF" points="52.003,72 52.003,76 60,76 60,72 52,72 		"/>
		<polyline fill="#EFE2CF" points="44,72 44,76 48,76 48,72 44,72 		"/>
		<polyline fill="#EFE2CF" points="28,72 28,76 32,76 32,72 28,72 		"/>
		<polyline fill="#EFE2CF" points="12,72 12,76 20,76 20,72 12,72 		"/>
		<polyline fill="#EFE2CF" points="4,68 4,72 8,72 8,68 4,68 		"/>
		<polyline fill="#EFE2CF" points="4,52 4,56 8,56 8,52 4,52 		"/>
		<rect x="4" y="36" fill="#EFE2CF" width="4" height="8"/>
		<rect x="4" y="20" fill="#EFE2CF" width="4" height="4"/>
		<rect x="20" y="72" fill="#EBD7BA" width="4" height="4"/>
		<rect x="36" y="72" fill="#EBD7BA" width="4" height="4"/>
		<polyline fill="#F8F2EB" points="64,72 64,76 68,76 68,72 64,72 		"/>
		<rect x="64" y="40" fill="#EFE2D0" width="4" height="8"/>
		<polyline fill="#EFE2D0" points="64,32 64,36 68,36 68,32 64,32 		"/>
		<rect x="64" y="24" fill="#EFE2D0" width="4" height="4"/>
		<polyline fill="#EFE2D0" points="44,12 44,16 56,16 56,12 44,12 		"/>
		<polyline fill="#EFE2D0" points="28,12 28,16 32,16 32,12 28,12 		"/>
		<rect x="12" y="12" fill="#EFE2D0" width="8" height="4.001"/>
		<rect x="4" y="24" fill="#EAD7BA" width="4" height="12"/>
		<rect x="4" y="44" fill="#EBD7BA" width="4" height="8"/>
		<polyline fill="#EBD7BA" points="4,56 4,60 8,60 8,56 4,56 		"/>
		<rect x="4" y="64" fill="#EBD7BA" width="4" height="4"/>
		<rect x="4" y="72" fill="#F6F2EB" width="4" height="4"/>
	</g>
	<g id="Arrow">
		<rect x="32" y="36" fill="#434343" width="4" height="4"/>
		<rect x="36" y="32" fill="#434343" width="4" height="4"/>
		<polygon fill="#969696" points="36,36 36,40 40,40 40,36.158 40,36 		"/>
		<rect x="36" y="40" fill="#D8D8D8" width="4" height="4"/>
		<rect x="40" y="44" fill="#D8D8D8" width="3.997" height="4"/>
		<rect x="43.997" y="44" fill="#969696" width="4.003" height="4"/>
		<rect x="43.997" y="40" fill="#434343" width="4.003" height="4"/>
		<rect x="40" y="40" fill="#886727" width="3.997" height="4"/>
		<rect x="43.997" y="36" fill="#886727" width="4.003" height="4"/>
		<rect x="48" y="32" fill="#886727" width="4.003" height="4"/>
		<rect x="52.003" y="27.999" fill="#886727" width="3.997" height="4.001"/>
		<rect x="56" y="24" fill="#886727" width="4" height="4"/>
		<rect x="60" y="20" fill="#886727" width="4" height="4"/>
		<rect x="64" y="16.003" fill="#886727" width="4" height="3.997"/>
		<rect x="40" y="36" fill="#281F0B" width="3.997" height="4"/>
		<rect x="44" y="32" fill="#281F0B" width="4" height="4"/>
		<rect x="48" y="27.999" fill="#281F0B" width="4.003" height="4.001"/>
		<rect x="52.003" y="24" fill="#281F0B" width="3.997" height="3.999"/>
		<rect x="60" y="16.003" fill="#281F0B" width="4" height="3.997"/>
		<rect x="64" y="12" fill="#281F0B" width="4" height="4.003"/>
		<rect x="64" y="8" fill="#3F3F3F" width="4" height="4"/>
		<rect x="68" y="4" fill="#3F3F3F" width="4" height="4"/>
		<polyline fill="#3F3F3F" points="72,0 72,4 76,4 76,0 72,0 		"/>
		<rect x="76" y="4" fill="#3F3F3F" width="4" height="4"/>
		<rect x="72" y="4" fill="#E0E0E0" width="4" height="4"/>
		<rect x="68" y="8" fill="#E0E0E0" width="4" height="4"/>
		<rect x="76" y="8" fill="#E0E0E0" width="4" height="4"/>
		<rect x="72" y="12" fill="#E0E0E0" width="4" height="4.003"/>
		<rect x="72" y="8" fill="#C6C6C6" width="4" height="4"/>
		<rect x="68" y="12" fill="#C6C6C6" width="4" height="4.003"/>
		<polyline fill="#281F0B" points="60,20 56,20 56,24 60,24 60,20 		"/>
	</g>
</g>
</svg>
